<svg width="141" height="23" viewBox="0 0 141 23" fill="none" xmlns="http://www.w3.org/2000/svg">
<path d="M0.787109 21.9561H3.74609V0.920898H0.787109V21.9561ZM35.7383 0.979492V16.8438L24.8984 0.979492H21.8662V21.9561H24.8252V6.10645L35.665 21.9561H38.6973V0.979492H35.7383ZM70.2354 1.02344L59.542 15.0566V1.02344H56.5977V22H59.542V19.9199L62.208 16.4336L68.7412 22H73.2822L63.9951 14.0752L73.9414 1.02344H70.2354ZM93.1309 1.05273H91.6807V22.0439H93.5264V22.0732H104.688V19.1289H94.625V15.8477H100.953V12.9033H94.625V3.99707H104.688V1.05273H93.1309ZM125.694 19.0264V3.93848H130.177C132.101 3.93848 133.746 4.67578 135.113 6.15039C136.48 7.625 137.164 9.40234 137.164 11.4824C137.164 13.5625 136.48 15.3398 135.113 16.8145C133.746 18.2891 132.101 19.0264 130.177 19.0264H125.694ZM129.796 0.979492H122.735V22L130.177 21.9854C132.921 21.9854 135.265 20.96 137.208 18.9092C139.151 16.8584 140.123 14.3828 140.123 11.4824C140.123 8.5918 139.151 6.11621 137.208 4.05566C135.265 2.00488 132.921 0.979492 130.177 0.979492H129.796Z" fill="#030303"/>
</svg>
